<?xml version="1.0" standalone="no"?>
<!DOCTYPE svg PUBLIC "-//W3C//DTD SVG 20010904//EN"
 "http://www.w3.org/TR/2001/REC-SVG-20010904/DTD/svg10.dtd">
<svg version="1.0" xmlns="http://www.w3.org/2000/svg"
 width="1024.000000pt" height="1024.000000pt" viewBox="0 0 1024.000000 1024.000000"
 preserveAspectRatio="xMidYMid meet">
<metadata>
Created by potrace 1.11, written by Peter Selinger 2001-2013
</metadata>
<g transform="translate(0.000000,1024.000000) scale(0.100000,-0.100000)"
fill="#000000" stroke="none">
<path d="M920 8379 c-77 -14 -108 -37 -135 -102 -14 -34 -16 -346 -16 -3141 0
-1707 3 -3122 7 -3145 10 -60 69 -117 132 -127 47 -8 8346 -11 8412 -4 66 8
132 68 146 133 2 12 4 200 4 417 0 388 -1 396 -23 440 -16 32 -35 52 -67 70
l-45 25 -3732 0 c-2052 0 -3735 4 -3739 8 -5 4 -9 1199 -9 2655 -1 2438 -3
2649 -18 2678 -21 39 -54 70 -92 85 -32 13 -758 20 -825 8z"/>
<path d="M3996 7805 c-70 -18 -107 -61 -216 -250 -10 -16 -324 -541 -699
-1165 l-681 -1135 0 -885 0 -885 3247 2 c1787 1 3256 2 3265 2 14 1 8 18 -29
94 -25 50 -65 133 -88 182 -23 50 -71 149 -105 220 -145 301 -281 586 -330
690 -21 44 -68 143 -105 220 -37 77 -91 190 -120 250 -60 125 -138 289 -232
485 -36 74 -85 176 -108 225 -23 50 -69 146 -102 215 -33 69 -84 175 -113 235
-191 400 -208 432 -236 452 -40 27 -86 44 -120 45 -30 0 -85 -18 -94 -31 -3
-4 -133 -93 -290 -196 -157 -103 -343 -227 -415 -274 -71 -47 -134 -88 -140
-91 -5 -3 -144 -94 -308 -203 -164 -108 -302 -198 -307 -200 -6 -1 -447 580
-725 957 -11 15 -48 64 -81 109 -203 271 -557 746 -571 767 -41 56 -100 124
-123 142 -36 26 -117 37 -174 23z"/>
</g>
</svg>
