<svg viewBox="0 0 120 120" xmlns="http://www.w3.org/2000/svg"><path d="M45.266 79.389l-.558.549c-1.158 1.138-2.394 2.217-3.672 3.216l-1.476 1.138c-.1.078-.22.118-.339.118-.1 0-.2-.021-.28-.078-.199-.118-.299-.334-.239-.57l.578-2.568c.64-2.786.5-5.708-.398-8.434l-.32-.942c-.358-1.098-.797-2.177-1.256-3.235l-6.803-15.788-.738-2.157c-.22-.668-.379-1.354-.459-2.059l-.121-1.079c-.339-3.04.72-6.021 2.913-8.178l.559-.549c1.157-1.138 2.394-2.216 3.67-3.217l1.477-1.137c.18-.137.419-.158.618-.04.2.118.299.334.24.57l-.579 2.568c-.638 2.786-.498 5.708.399 8.434l.32.94c.359 1.099.798 2.178 1.256 3.237l6.824 15.788.738 2.156c.219.667.379 1.354.459 2.06l.119 1.078c.32 3.021-.738 6.001-2.932 8.179zm23.023 5.177l-.719.706c-1.457 1.432-3.012 2.804-4.629 4.04l-1.915 1.49c-.099.079-.239.118-.358.118-.1 0-.22-.039-.32-.097-.22-.137-.318-.373-.259-.608l.757-3.315c.799-3.531.619-7.218-.517-10.649l-.4-1.196c-.458-1.393-.998-2.766-1.596-4.099l-8.599-19.907-.917-2.705c-.28-.824-.479-1.706-.579-2.57l-.159-1.373c-.439-3.805.898-7.53 3.631-10.256l.718-.707c1.456-1.432 3.013-2.805 4.628-4.04l1.915-1.491c.201-.156.46-.176.678-.038.22.137.32.372.26.608l-.758 3.314c-.797 3.53-.618 7.217.519 10.649l.399 1.197c.459 1.373.997 2.764 1.595 4.099l8.599 19.924.918 2.707c.279.824.479 1.706.578 2.57l.161 1.373c.438 3.805-.898 7.549-3.631 10.256zm19.631-5.177l-.559.549c-1.157 1.138-2.394 2.217-3.67 3.216l-1.477 1.138c-.101.078-.22.118-.339.118-.101 0-.199-.021-.279-.078-.201-.118-.299-.334-.24-.57l.579-2.568c.638-2.786.498-5.708-.399-8.434l-.32-.942c-.359-1.098-.798-2.177-1.256-3.235l-6.824-15.788-.738-2.157c-.219-.668-.379-1.354-.459-2.059L71.82 47.5c-.339-3.04.718-6.021 2.912-8.178l.559-.549c1.157-1.138 2.394-2.216 3.671-3.217l1.477-1.137c.178-.137.418-.158.617-.04s.3.334.241.57l-.58 2.568c-.638 2.786-.498 5.708.4 8.434l.318.94c.36 1.099.799 2.178 1.258 3.237l6.822 15.788.738 2.156c.22.667.379 1.354.459 2.06l.121 1.078c.339 3.021-.72 6.001-2.913 8.179z"/><path d="M60.009.323c32.977 0 59.712 26.734 59.712 59.712 0 32.977-26.735 59.712-59.712 59.712-32.978 0-59.712-26.735-59.712-59.712C.297 27.057 27.031.323 60.009.323zm0 2.745c-31.462 0-56.967 25.505-56.967 56.967s25.505 56.967 56.967 56.967 56.967-25.505 56.967-56.967S91.471 3.068 60.009 3.068z"/></svg>